<?xml version="1.0" standalone="no"?><!-- Generator: Gravit.io --><svg xmlns="http://www.w3.org/2000/svg" xmlns:xlink="http://www.w3.org/1999/xlink" style="isolation:isolate" viewBox="0 0 155 230" width="155" height="230"><defs><clipPath id="_clipPath_arxntqvk0BBsXFtJtvxBunXzxeilqeUl"><rect width="155" height="230"/></clipPath></defs><g clip-path="url(#_clipPath_arxntqvk0BBsXFtJtvxBunXzxeilqeUl)"><g id="Group"><mask id="_mask_AFwQzXxfrqHTffa6XKTwWShLgz8zTk3Q"><path d=" M 154.96 75 C 153.639 33.382 119.437 0 77.5 0 C 35.563 0 1.361 33.382 0.04 75 L 0 75 L 0 77.5 L 0 77.5 L 0 230 L 155 230 L 155 77.5 L 155 77.5 L 155 75 L 154.96 75 Z " fill="white" stroke="none"/></mask><path d=" M 154.96 75 C 153.639 33.382 119.437 0 77.5 0 C 35.563 0 1.361 33.382 0.04 75 L 0 75 L 0 77.5 L 0 77.5 L 0 230 L 155 230 L 155 77.5 L 155 77.5 L 155 75 L 154.96 75 Z " fill="rgb(255,255,255)" mask="url(#_mask_AFwQzXxfrqHTffa6XKTwWShLgz8zTk3Q)" vector-effect="non-scaling-stroke" stroke-width="6" stroke="rgb(54,58,76)" stroke-linejoin="miter" stroke-linecap="square" stroke-miterlimit="3"/><g id="Group"><g id="Group"><path d=" M 93.636 105.381 C 88.503 101.385 84.386 97.881 80.271 94.171 C 80.966 93.459 81.677 92.746 82.431 92.016 C 88.843 85.714 90.115 85.094 91.503 84.608 C 91.503 84.608 99.871 81.206 104.271 76.528 C 108.667 71.856 118.697 58.429 118.697 58.429 L 117.938 57.664 L 105.433 70.175 L 104.399 69.138 L 116.896 56.645 L 116.119 55.85 L 103.607 68.35 L 103.098 67.836 L 103.079 67.819 L 102.554 67.305 L 115.063 54.784 L 114.266 54 L 101.771 66.512 L 100.736 65.472 L 113.24 52.964 L 112.482 52.214 C 112.482 52.214 99.064 62.247 94.375 66.644 C 89.703 71.035 86.299 79.403 86.299 79.403 C 85.813 80.795 85.192 82.059 78.9 88.486 C 78.113 89.293 77.346 90.051 76.573 90.802 C 75.704 90.001 74.835 89.177 73.934 88.337 C 72.717 87.192 53.486 67.7 46.381 60.818 C 39.3 53.954 37.887 53.803 36.695 54.981 C 35.514 56.175 37.255 64.28 40.816 70.325 C 44.392 76.359 48.189 80.849 50.003 82.934 C 56.839 90.812 58.641 90.281 60.074 90.307 C 61.488 90.344 63.65 85.916 70.058 92.208 C 70.888 93.017 71.687 93.824 72.459 94.617 C 68.388 98.233 64.179 101.548 59.099 105.457 C 51.329 111.409 46.482 115.748 41.195 121.28 C 36.155 126.566 35.886 133.592 36.59 134.311 C 37.297 135.009 44.345 134.749 49.625 129.718 C 55.16 124.428 59.51 119.573 65.461 111.81 C 69.311 106.8 72.589 102.616 76.166 98.592 C 79.812 102.664 83.159 106.85 87.11 111.896 C 93.123 119.612 97.479 124.447 102.998 129.733 C 108.287 134.79 115.378 134.981 116.046 134.333 L 116.332 134.009 C 117.008 133.345 116.502 126.552 111.469 121.28 C 106.171 115.748 101.339 111.397 93.636 105.381 Z " fill="rgb(54,58,76)"/></g><path d=" M 76.031 80.528 C 76.031 80.528 57.191 65.274 61.798 46.848 C 66.654 27.404 70.476 23.24 69.435 13.518 C 69.434 13.519 105.89 50.318 76.031 80.528 Z " fill="rgb(45,46,131)"/><path d=" M 52.618 56.096 C 52.618 56.096 42.539 52.423 42.769 44.748 C 43.012 36.651 44.324 34.593 42.87 30.955 C 42.869 30.956 63.103 40.882 52.618 56.096 Z " fill="rgb(149,193,31)"/><path d=" M 58.302 35.302 C 58.302 35.302 64.219 28.397 60.855 22.825 C 57.312 16.943 55.482 15.963 55.043 12.671 C 55.042 12.671 44.218 28.423 58.302 35.302 Z " fill="rgb(170,21,74)"/><path d=" M 107.702 109.639 C 107.702 109.639 111.255 118.25 117.907 117.772 C 124.926 117.267 126.669 116.058 129.878 117.183 C 129.878 117.184 120.527 99.982 107.702 109.639 Z " fill="rgb(243,146,0)"/><path d=" M 58.594 95.049 C 58.594 95.049 48.032 87.802 40.734 93.357 C 33.031 99.208 31.94 101.911 27.393 103.029 C 27.392 103.03 51.082 115.801 58.594 95.049 Z " fill="rgb(45,46,131)"/><path d=" M 33.705 41.688 C 33.705 41.688 37.267 37.042 34.914 33.569 C 32.427 29.914 31.217 29.346 30.82 27.243 C 30.82 27.243 24.406 37.753 33.705 41.688 Z " fill="rgb(29,113,184)"/><path d=" M 125.698 102.151 C 125.698 102.151 130.347 105.714 133.818 103.358 C 137.478 100.872 138.042 99.668 140.146 99.27 C 140.146 99.27 129.634 92.853 125.698 102.151 Z " fill="rgb(29,113,184)"/><path d=" M 56.178 142.102 C 56.178 142.102 61.423 139.487 60.826 135.334 C 60.197 130.955 59.36 129.92 59.924 127.854 C 59.924 127.854 49.55 134.482 56.178 142.102 Z " fill="rgb(149,193,31)"/><path d=" M 78.201 108.937 C 78.201 108.937 64.308 114.952 65.267 125.745 C 66.282 137.132 68.294 139.931 66.55 145.176 C 66.55 145.175 94.244 129.504 78.201 108.937 Z " fill="rgb(45,46,131)"/><path d=" M 94.984 142.807 C 94.984 142.807 100.609 129.117 92.146 123.745 C 92.146 123.745 89.225 122.852 88.487 124.224 C 87.752 125.602 86.501 129.5 90.476 133.457 C 94.452 137.409 95.645 138.729 94.984 142.807 Z " fill="rgb(149,193,31)"/><path d=" M 113.429 45.892 C 113.429 45.892 120.626 48.81 124.222 44.575 C 128.019 40.111 128.316 38.368 130.861 37.119 C 130.861 37.119 115.176 32.632 113.429 45.892 Z " fill="rgb(170,21,74)"/><path d=" M 94.865 55.445 C 94.865 55.445 109.359 51.068 109.646 40.231 C 109.948 28.805 108.261 25.794 110.601 20.782 C 110.601 20.782 81.286 33.168 94.865 55.445 Z " fill="rgb(243,146,0)"/><path d=" M 137.3 62.813 C 137.3 62.813 127.351 58.703 122.324 64.536 C 117.018 70.69 116.592 73.106 113.053 74.812 C 113.054 74.812 134.749 81.176 137.3 62.813 Z " fill="rgb(149,193,31)"/><path d=" M 27.902 96.629 C 27.902 96.629 26.379 87.823 20.051 86.88 C 13.384 85.884 11.498 86.654 8.731 84.927 C 8.731 84.928 13.884 102.979 27.902 96.629 Z " fill="rgb(149,193,31)"/><path d=" M 21.313 38.505 C 21.313 38.505 8.038 61.531 21.818 73.123 C 21.818 73.123 26.816 75.399 28.454 73.131 C 30.089 70.862 33.243 64.214 27.107 56.228 C 20.975 48.245 19.161 45.607 21.313 38.505 Z " fill="rgb(243,146,0)"/><path d=" M 18.137 78.542 C 18.137 78.542 31.707 92.597 42.69 85.22 C 42.69 85.22 45.315 82.156 44.048 80.54 C 42.774 78.918 38.717 75.346 31.836 78.054 C 24.947 80.761 22.719 81.507 18.137 78.542 Z " fill="rgb(149,193,31)"/><path d=" M 98.65 12.869 C 98.65 12.869 85.046 18.302 87.053 28.02 C 87.053 28.02 88.439 30.712 89.925 30.289 C 91.405 29.865 95.036 28.065 95.107 22.516 C 95.178 16.969 95.296 15.207 98.65 12.869 Z " fill="rgb(29,113,184)"/><path d=" M 143.874 87.731 C 143.874 87.731 110.149 70.71 94.786 91.182 C 94.786 91.182 91.949 98.45 95.3 100.594 C 98.65 102.74 108.329 106.686 119.176 97.353 C 130.026 88.021 133.622 85.234 143.874 87.731 Z " fill="rgb(45,46,131)"/><path d=" M 140.07 54.689 C 140.07 54.689 132.197 46.084 125.524 50.307 C 125.524 50.307 123.908 52.098 124.642 53.082 C 125.372 54.067 127.735 56.267 131.89 54.763 C 136.04 53.253 137.382 52.847 140.07 54.689 Z " fill="rgb(149,193,31)"/><path d=" M 20.769 113.359 C 20.769 113.359 32.257 123.646 40.486 117.209 C 40.486 117.209 42.373 114.639 41.281 113.439 C 40.19 112.243 36.79 109.655 31.525 112.184 C 26.255 114.714 24.546 115.43 20.769 113.359 Z " fill="rgb(149,193,31)"/></g><g id="Group"><g id="Group"><path d=" M 23.228 187.444 L 20.083 187.444 L 13.573 180.175 L 13.573 187.444 L 11.265 187.444 L 11.265 163.848 L 14.882 163.848 C 17.132 163.848 19.056 164.65 20.652 166.252 C 22.248 167.854 23.046 169.785 23.046 172.043 C 23.046 173.959 22.448 175.664 21.252 177.163 C 20.056 178.661 18.518 179.618 16.636 180.033 L 23.228 187.444 Z  M 20.737 171.996 C 20.737 170.383 20.166 169.012 19.023 167.884 C 17.879 166.756 16.499 166.192 14.882 166.192 L 13.573 166.192 L 13.573 177.834 L 14.859 177.834 C 16.482 177.834 17.868 177.263 19.015 176.124 C 20.164 174.984 20.737 173.608 20.737 171.996 Z " fill="rgb(54,58,76)"/><path d=" M 31.072 187.444 L 28.764 187.444 L 28.764 163.848 L 31.072 163.848 L 31.072 187.444 Z " fill="rgb(54,58,76)"/><path d=" M 53.221 163.848 L 43.886 188.169 L 34.55 163.848 L 37.06 163.848 L 43.886 181.825 L 50.712 163.848 L 53.221 163.848 Z " fill="rgb(54,58,76)"/><path d=" M 66.965 187.444 L 56.733 187.444 L 56.733 163.848 L 66.965 163.848 L 66.965 166.192 L 59.041 166.192 L 59.041 174.458 L 66.965 174.458 L 66.965 176.801 L 59.041 176.801 L 59.041 185.102 L 66.965 185.102 L 66.965 187.444 Z " fill="rgb(54,58,76)"/><path d=" M 84.439 187.444 L 81.294 187.444 L 74.783 180.175 L 74.783 187.444 L 72.475 187.444 L 72.475 163.848 L 76.092 163.848 C 78.343 163.848 80.267 164.65 81.863 166.252 C 83.459 167.854 84.257 169.785 84.257 172.043 C 84.257 173.959 83.659 175.664 82.463 177.163 C 81.267 178.661 79.729 179.618 77.847 180.033 L 84.439 187.444 Z  M 81.949 171.996 C 81.949 170.383 81.378 169.012 80.233 167.884 C 79.089 166.756 77.71 166.192 76.092 166.192 L 74.783 166.192 L 74.783 177.834 L 76.071 177.834 C 77.694 177.834 79.079 177.263 80.227 176.124 C 81.374 174.984 81.949 173.608 81.949 171.996 Z " fill="rgb(54,58,76)"/><path d=" M 96.106 180.761 C 96.106 182.829 95.457 184.512 94.16 185.808 C 92.863 187.106 91.18 187.754 89.114 187.754 C 88.792 187.754 88.493 187.721 88.218 187.65 L 88.218 185.24 C 88.47 185.355 88.769 185.412 89.114 185.412 C 90.468 185.412 91.589 184.976 92.473 184.103 C 93.356 183.231 93.799 182.117 93.799 180.761 C 93.799 179.66 93.374 178.535 92.524 177.386 C 91.743 176.353 90.962 175.331 90.182 174.321 C 89.332 173.034 88.907 171.669 88.907 170.222 C 88.907 168.224 89.555 166.611 90.853 165.381 C 92.15 164.153 93.809 163.538 95.831 163.538 L 95.831 165.811 C 94.499 165.811 93.396 166.213 92.524 167.018 C 91.652 167.821 91.215 168.889 91.215 170.221 C 91.215 171.254 91.64 172.357 92.49 173.527 C 93.271 174.561 94.062 175.594 94.867 176.628 C 95.692 177.937 96.106 179.315 96.106 180.761 Z " fill="rgb(54,58,76)"/><path d=" M 103.615 187.444 L 101.307 187.444 L 101.307 163.848 L 103.615 163.848 L 103.615 187.444 Z " fill="rgb(54,58,76)"/><path d=" M 125.936 175.663 C 125.936 178.902 124.782 181.675 122.475 183.983 C 120.166 186.29 117.395 187.444 114.156 187.444 L 110.504 187.444 L 110.504 163.848 L 114.156 163.848 C 117.395 163.848 120.166 165.003 122.475 167.31 C 124.782 169.618 125.936 172.403 125.936 175.663 Z  M 123.629 175.663 C 123.629 173.045 122.698 170.812 120.838 168.963 C 118.977 167.115 116.742 166.191 114.13 166.191 L 112.811 166.191 L 112.811 185.101 L 114.13 185.101 C 116.741 185.101 118.977 184.178 120.838 182.328 C 122.698 180.481 123.629 178.259 123.629 175.663 Z " fill="rgb(54,58,76)"/><path d=" M 141.265 187.444 L 131.033 187.444 L 131.033 163.848 L 141.265 163.848 L 141.265 166.192 L 133.341 166.192 L 133.341 174.458 L 141.265 174.458 L 141.265 176.801 L 133.341 176.801 L 133.341 185.102 L 141.265 185.102 L 141.265 187.444 Z " fill="rgb(54,58,76)"/></g><g id="Group"><path d=" M 30.441 212.783 C 28.254 214.969 25.605 216.063 22.494 216.063 C 19.381 216.063 16.732 214.965 14.545 212.768 C 12.359 210.571 11.265 207.927 11.265 204.837 C 11.265 201.724 12.358 199.07 14.545 196.872 C 16.732 194.676 19.38 193.577 22.494 193.577 C 25.605 193.577 28.254 194.681 30.441 196.889 L 28.895 198.434 C 27.129 196.668 24.995 195.785 22.494 195.785 C 20.012 195.785 17.888 196.668 16.122 198.434 C 14.356 200.201 13.473 202.333 13.473 204.837 C 13.473 207.317 14.356 209.44 16.122 211.207 C 17.888 212.974 20.012 213.857 22.494 213.857 C 24.995 213.857 27.129 212.974 28.895 211.207 L 30.441 212.783 Z " fill="rgb(54,58,76)"/><path d=" M 48.196 215.621 L 45.899 215.621 L 44.734 212.499 L 34.598 212.499 L 33.399 215.621 L 31.102 215.621 L 39.648 193.355 L 48.196 215.621 Z  M 44.023 210.733 L 39.649 199.163 L 35.243 210.733 L 44.023 210.733 Z " fill="rgb(54,58,76)"/><path d=" M 60.371 196.163 L 55.671 196.163 L 55.671 215.622 L 53.559 215.622 L 53.559 196.163 L 48.891 196.163 L 48.891 194.018 L 60.371 194.018 L 60.371 196.163 L 60.371 196.163 Z " fill="rgb(54,58,76)"/><path d=" M 73.553 215.621 L 64.186 215.621 L 64.186 194.017 L 73.553 194.017 L 73.553 196.162 L 66.3 196.162 L 66.3 203.731 L 73.553 203.731 L 73.553 205.874 L 66.3 205.874 L 66.3 213.476 L 73.553 213.476 L 73.553 215.621 Z " fill="rgb(54,58,76)"/><path d=" M 89.552 215.621 L 86.673 215.621 L 80.713 208.967 L 80.713 215.621 L 78.6 215.621 L 78.6 194.017 L 81.911 194.017 C 83.971 194.017 85.732 194.751 87.194 196.218 C 88.654 197.685 89.385 199.453 89.385 201.521 C 89.385 203.275 88.837 204.836 87.743 206.208 C 86.648 207.579 85.238 208.456 83.517 208.837 L 89.552 215.621 Z  M 87.273 201.476 C 87.273 200 86.748 198.746 85.703 197.712 C 84.656 196.678 83.392 196.162 81.911 196.162 L 80.713 196.162 L 80.713 206.822 L 81.891 206.822 C 83.377 206.822 84.644 206.3 85.697 205.256 C 86.747 204.213 87.273 202.953 87.273 201.476 Z " fill="rgb(54,58,76)"/><path d=" M 96.734 215.621 L 94.62 215.621 L 94.62 194.017 L 96.734 194.017 L 96.734 215.621 Z " fill="rgb(54,58,76)"/><path d=" M 114.331 216.132 L 105.153 200.959 L 105.153 215.621 L 103.04 215.621 L 103.04 193.419 L 112.218 208.652 L 112.218 194.017 L 114.331 194.017 L 114.331 216.132 Z " fill="rgb(54,58,76)"/><path d=" M 141.265 206.948 C 140.76 209.598 139.468 211.78 137.386 213.492 C 135.304 215.206 132.917 216.062 130.227 216.062 C 127.115 216.062 124.465 214.964 122.279 212.767 C 120.092 210.57 118.998 207.926 118.998 204.836 C 118.998 201.723 120.091 199.069 122.279 196.871 C 124.465 194.675 127.115 193.576 130.227 193.576 C 133.338 193.576 135.988 194.68 138.174 196.888 L 136.629 198.433 C 134.862 196.667 132.729 195.784 130.227 195.784 C 127.746 195.784 125.622 196.667 123.856 198.433 C 122.089 200.2 121.206 202.332 121.206 204.836 C 121.206 207.316 122.089 209.439 123.856 211.206 C 125.622 212.973 127.746 213.856 130.227 213.856 C 131.887 213.856 133.427 213.429 134.848 212.578 C 136.266 211.727 137.376 210.564 138.174 209.093 L 130.069 209.093 L 130.069 206.948 L 141.265 206.948 L 141.265 206.948 Z " fill="rgb(54,58,76)"/></g></g></g></g></svg>